<svg width="13" height="22" viewBox="0 0 13 22" fill="none" xmlns="http://www.w3.org/2000/svg">
    <path d="M7.5 4C8.6 4 9.5 3.1 9.5 2C9.5 0.9 8.6 0 7.5 0C6.4 0 5.5 0.9 5.5 2C5.5 3.1 6.4 4 7.5 4ZM2.49132 7.90893C3.05813 7.68851 3.64496 8.18075 3.5265 8.77726L1.24689 20.2567C1.1191 20.9002 1.61146 21.5 2.26754 21.5C2.75422 21.5 3.1759 21.1627 3.28274 20.6878L4.3878 15.7764C4.61332 14.7742 5.84573 14.4007 6.58965 15.1092C6.85169 15.3588 7 15.7048 7 16.0667V20.5C7 21.0523 7.44772 21.5 8 21.5C8.55229 21.5 9 21.0523 9 20.5V15.2688C9 14.4586 8.66793 13.6837 8.0812 13.125L7.37109 12.4487C7.07781 12.1693 6.94816 11.7592 7.02758 11.3621C7.22009 10.3996 8.50215 10.0322 9.35297 10.5217C10.1506 10.9805 11.049 11.2988 12.0031 11.4312C12.5501 11.5071 13 11.0523 13 10.5C13 9.94771 12.5481 9.51029 12.0057 9.40624C10.5497 9.12691 9.35595 8.24791 8.7 7.1L7.7 5.5C7.3 4.9 6.7 4.5 6 4.5C5.46695 4.5 4.94704 4.70702 4.45611 4.91472L1.72528 6.07007C0.679502 6.51252 0 7.53781 0 8.67334V10.5C0 11.0523 0.447715 11.5 1 11.5C1.55228 11.5 2 11.0523 2 10.5V8.62716C2 8.30934 2.19511 8.02412 2.49132 7.90893Z" fill="#A7A7A7"/>
</svg>
